<svg width="46" height="46" viewBox="0 0 46 46" fill="none" xmlns="http://www.w3.org/2000/svg">
<path d="M14.5938 23.31C14.6078 23.329 14.6148 23.351 14.6318 23.368L20.2318 28.968C20.3338 29.069 20.4668 29.119 20.5998 29.119C20.7328 29.119 20.8668 29.068 20.9678 28.968C21.1698 28.765 21.1698 28.435 20.9678 28.232L16.2558 23.521H30.9998C31.2868 23.521 31.5198 23.288 31.5198 23.001C31.5198 22.714 31.2868 22.48 30.9998 22.48H16.2548L20.9668 17.768C21.1688 17.565 21.1688 17.236 20.9658 17.033C20.7648 16.83 20.4338 16.83 20.2308 17.033L14.6308 22.633C14.6138 22.65 14.6058 22.673 14.5918 22.692C14.5648 22.727 14.5368 22.76 14.5198 22.801C14.4668 22.929 14.4668 23.072 14.5198 23.2C14.5378 23.241 14.5668 23.275 14.5938 23.31Z" fill="#0097DB"/>
</svg>
