<svg width="49" height="48" viewBox="0 0 49 48" fill="none" xmlns="http://www.w3.org/2000/svg">
<path fill-rule="evenodd" clip-rule="evenodd" d="M8.51074 7.08369C8.51074 6.64186 8.86891 6.28369 9.31074 6.28369H35.8439C36.2858 6.28369 36.6439 6.64186 36.6439 7.08369V15.0002C36.6439 15.442 36.2858 15.8002 35.8439 15.8002C35.4021 15.8002 35.0439 15.442 35.0439 15.0002V7.88369H10.1107V40.2002H16.5127V32.6845C16.5127 32.2427 16.8709 31.8845 17.3127 31.8845H19.8439C20.2858 31.8845 20.6439 32.2427 20.6439 32.6845C20.6439 33.1264 20.2858 33.4845 19.8439 33.4845H18.1127V40.2002H23.5439L23.5439 19.0002C23.5439 18.5584 23.9021 18.2002 24.3439 18.2002H39.3439C39.7858 18.2002 40.1439 18.5584 40.1439 19.0002V41.0002C40.1439 41.442 39.7858 41.8002 39.3439 41.8002H24.3439L24.3415 41.8002H9.31074C8.86891 41.8002 8.51074 41.442 8.51074 41.0002V7.08369ZM25.1439 40.2002L25.1439 19.8002H38.5439V40.2002H25.1439Z" fill="#0097DB"/>
<path d="M14.591 11.8704C14.1492 11.8704 13.791 12.2285 13.791 12.6704C13.791 13.1122 14.1492 13.4704 14.591 13.4704H19.81C20.2518 13.4704 20.61 13.1122 20.61 12.6704C20.61 12.2285 20.2518 11.8704 19.81 11.8704H14.591Z" fill="#0097DB"/>
<path d="M13.7918 19.3257C13.7918 18.8839 14.1499 18.5257 14.5918 18.5257H19.8437C20.2855 18.5257 20.6437 18.8839 20.6437 19.3257C20.6437 19.7675 20.2855 20.1257 19.8437 20.1257H14.5918C14.1499 20.1257 13.7918 19.7675 13.7918 19.3257Z" fill="#0097DB"/>
<path d="M14.592 25.1858C14.1502 25.1858 13.792 25.544 13.792 25.9858C13.792 26.4276 14.1502 26.7858 14.592 26.7858H19.8439C20.2858 26.7858 20.6439 26.4276 20.6439 25.9858C20.6439 25.544 20.2858 25.1858 19.8439 25.1858H14.592Z" fill="#0097DB"/>
<path d="M24.0078 12.6704C24.0078 12.2285 24.366 11.8704 24.8078 11.8704H30.0268C30.4686 11.8704 30.8268 12.2285 30.8268 12.6704C30.8268 13.1122 30.4686 13.4704 30.0268 13.4704H24.8078C24.366 13.4704 24.0078 13.1122 24.0078 12.6704Z" fill="#0097DB"/>
</svg>
