<svg width="49" height="48" viewBox="0 0 49 48" fill="none" xmlns="http://www.w3.org/2000/svg">
<path d="M38.5837 4.87988H10.1037C9.66171 4.87988 9.30371 5.23788 9.30371 5.67988V42.2399C9.30371 42.6809 9.66171 43.0399 10.1037 43.0399H38.5837C39.0247 43.0399 39.3837 42.6819 39.3837 42.2399V5.67988C39.3837 5.23788 39.0257 4.87988 38.5837 4.87988ZM26.5837 41.4399H22.1037V36.9599H26.5837V41.4399ZM37.7837 41.4399H28.1837V36.1599C28.1837 35.7189 27.8257 35.3599 27.3837 35.3599H21.3037C20.8617 35.3599 20.5037 35.7179 20.5037 36.1599V41.4399H10.9037V6.47888H37.7837V41.4399ZM15.1437 11.7599C15.1437 11.3179 15.5017 10.9599 15.9437 10.9599H21.6237C22.0657 10.9599 22.4237 11.3179 22.4237 11.7599C22.4237 12.2019 22.0657 12.5599 21.6237 12.5599H15.9437C15.5017 12.5599 15.1437 12.2019 15.1437 11.7599ZM15.1437 17.8399C15.1437 17.3979 15.5017 17.0399 15.9437 17.0399H21.6237C22.0657 17.0399 22.4237 17.3979 22.4237 17.8399C22.4237 18.2819 22.0657 18.6399 21.6237 18.6399H15.9437C15.5017 18.6399 15.1437 18.2819 15.1437 17.8399ZM15.1437 23.9999C15.1437 23.5579 15.5017 23.1999 15.9437 23.1999H21.6237C22.0657 23.1999 22.4237 23.5579 22.4237 23.9999C22.4237 24.4419 22.0657 24.7999 21.6237 24.7999H15.9437C15.5017 24.7999 15.1437 24.4419 15.1437 23.9999ZM15.1437 30.0799C15.1437 29.6389 15.5017 29.2799 15.9437 29.2799H21.6237C22.0657 29.2799 22.4237 29.6379 22.4237 30.0799C22.4237 30.5219 22.0657 30.8799 21.6237 30.8799H15.9437C15.5017 30.8799 15.1437 30.5209 15.1437 30.0799ZM26.2637 11.7599C26.2637 11.3179 26.6217 10.9599 27.0637 10.9599H32.7437C33.1847 10.9599 33.5437 11.3179 33.5437 11.7599C33.5437 12.2019 33.1857 12.5599 32.7437 12.5599H27.0637C26.6217 12.5599 26.2637 12.2019 26.2637 11.7599ZM26.2637 17.8399C26.2637 17.3979 26.6217 17.0399 27.0637 17.0399H32.7437C33.1847 17.0399 33.5437 17.3979 33.5437 17.8399C33.5437 18.2819 33.1857 18.6399 32.7437 18.6399H27.0637C26.6217 18.6399 26.2637 18.2819 26.2637 17.8399ZM26.2637 23.9999C26.2637 23.5579 26.6217 23.1999 27.0637 23.1999H32.7437C33.1847 23.1999 33.5437 23.5579 33.5437 23.9999C33.5437 24.4419 33.1857 24.7999 32.7437 24.7999H27.0637C26.6217 24.7999 26.2637 24.4419 26.2637 23.9999ZM26.2637 30.0799C26.2637 29.6389 26.6217 29.2799 27.0637 29.2799H32.7437C33.1847 29.2799 33.5437 29.6379 33.5437 30.0799C33.5437 30.5219 33.1857 30.8799 32.7437 30.8799H27.0637C26.6217 30.8799 26.2637 30.5209 26.2637 30.0799Z" fill="#0097DB"/>
</svg>
