<svg width="48" height="48" viewBox="0 0 48 48" fill="none" xmlns="http://www.w3.org/2000/svg">
<path d="M32.2002 23.0002C32.2002 22.5584 32.5584 22.2002 33.0002 22.2002H35.0002C35.442 22.2002 35.8002 22.5584 35.8002 23.0002C35.8002 23.442 35.442 23.8002 35.0002 23.8002H33.0002C32.5584 23.8002 32.2002 23.442 32.2002 23.0002Z" fill="#0097DB"/>
<path d="M28.0002 22.2002C27.5584 22.2002 27.2002 22.5584 27.2002 23.0002C27.2002 23.442 27.5584 23.8002 28.0002 23.8002H30.0002C30.442 23.8002 30.8002 23.442 30.8002 23.0002C30.8002 22.5584 30.442 22.2002 30.0002 22.2002H28.0002Z" fill="#0097DB"/>
<path d="M32.2002 27.0002C32.2002 26.5584 32.5584 26.2002 33.0002 26.2002H35.0002C35.442 26.2002 35.8002 26.5584 35.8002 27.0002C35.8002 27.442 35.442 27.8002 35.0002 27.8002H33.0002C32.5584 27.8002 32.2002 27.442 32.2002 27.0002Z" fill="#0097DB"/>
<path d="M28.0002 26.2002C27.5584 26.2002 27.2002 26.5584 27.2002 27.0002C27.2002 27.442 27.5584 27.8002 28.0002 27.8002H30.0002C30.442 27.8002 30.8002 27.442 30.8002 27.0002C30.8002 26.5584 30.442 26.2002 30.0002 26.2002H28.0002Z" fill="#0097DB"/>
<path d="M32.2002 31.0002C32.2002 30.5584 32.5584 30.2002 33.0002 30.2002H35.0002C35.442 30.2002 35.8002 30.5584 35.8002 31.0002C35.8002 31.442 35.442 31.8002 35.0002 31.8002H33.0002C32.5584 31.8002 32.2002 31.442 32.2002 31.0002Z" fill="#0097DB"/>
<path d="M28.0002 30.2002C27.5584 30.2002 27.2002 30.5584 27.2002 31.0002C27.2002 31.442 27.5584 31.8002 28.0002 31.8002H30.0002C30.442 31.8002 30.8002 31.442 30.8002 31.0002C30.8002 30.5584 30.442 30.2002 30.0002 30.2002H28.0002Z" fill="#0097DB"/>
<path fill-rule="evenodd" clip-rule="evenodd" d="M8.96699 6.28369C8.52516 6.28369 8.16699 6.64186 8.16699 7.08369V41.0002C8.16699 41.442 8.52516 41.8002 8.96699 41.8002H23.9977L24.0002 41.8002H39.0002C39.442 41.8002 39.8002 41.442 39.8002 41.0002V19.0002C39.8002 18.5584 39.442 18.2002 39.0002 18.2002H24.0002C23.5584 18.2002 23.2002 18.5584 23.2002 19.0002L23.2002 40.2002H9.76699V7.88369H34.7002V15.0002C34.7002 15.442 35.0584 15.8002 35.5002 15.8002C35.942 15.8002 36.3002 15.442 36.3002 15.0002V7.08369C36.3002 6.64186 35.942 6.28369 35.5002 6.28369H8.96699ZM24.8002 40.2002H28.2002V35.4924C28.2002 35.0506 28.5584 34.6924 29.0002 34.6924H34.3876C34.8294 34.6924 35.1876 35.0506 35.1876 35.4924V40.2002H38.2002V19.8002H24.8002L24.8002 40.2002ZM33.5876 36.2924V40.2002H29.8002V36.2924H33.5876Z" fill="#0097DB"/>
</svg>
