<svg width="49" height="48" viewBox="0 0 49 48" fill="none" xmlns="http://www.w3.org/2000/svg">
<path d="M40.9684 11.2H31.3674V7.20002C31.3674 6.75802 31.0094 6.40002 30.5674 6.40002H19.3684C18.9264 6.40002 18.5684 6.75802 18.5684 7.20002V11.2H8.96836C7.64536 11.2 6.56836 12.277 6.56836 13.6V29.6C6.56836 30.041 6.92636 30.4 7.36836 30.4H20.1684V32.8C20.1684 33.241 20.5264 33.6 20.9684 33.6H28.9684C29.4094 33.6 29.7684 33.242 29.7684 32.8V30.4H42.5684C43.0094 30.4 43.3684 30.042 43.3684 29.6V13.6C43.3674 12.277 42.2914 11.2 40.9684 11.2ZM20.1684 8.00002H29.7684V11.2H20.1684V8.00002ZM28.1684 32H21.7684V27.199H28.1684V32ZM41.7684 28.8H29.7684V26.4C29.7684 25.959 29.4104 25.6 28.9684 25.6H20.9684C20.5264 25.6 20.1684 25.958 20.1684 26.4V28.8H8.16836V13.6C8.16836 13.159 8.52736 12.8 8.96836 12.8H40.9684C41.4084 12.8 41.7684 13.159 41.7684 13.6V28.8ZM41.7684 33.6V39.2C41.7684 40.523 40.6924 41.599 39.3694 41.599H10.5684C9.24536 41.599 8.16836 40.523 8.16836 39.2V33.6C8.16836 33.159 8.52636 32.8 8.96836 32.8C9.41036 32.8 9.76836 33.158 9.76836 33.6V39.2C9.76836 39.64 10.1274 40 10.5684 40H39.3684C39.8084 40 40.1684 39.641 40.1684 39.2V33.6C40.1684 33.159 40.5264 32.8 40.9684 32.8C41.4104 32.8 41.7684 33.158 41.7684 33.6Z" fill="#0097DB"/>
</svg>
