<svg width="25" height="24" viewBox="0 0 25 24" fill="none" xmlns="http://www.w3.org/2000/svg">
<path d="M15.6376 12.0002C15.6376 12.2872 15.4056 12.5202 15.1176 12.5202H13.0776V14.5612C13.0776 14.8482 12.8446 15.0812 12.5576 15.0812C12.2706 15.0812 12.0376 14.8492 12.0376 14.5612V12.5202H9.99856C9.71156 12.5202 9.47856 12.2872 9.47856 12.0002C9.47856 11.7132 9.71156 11.4802 9.99856 11.4802H12.0386V9.44021C12.0386 9.15321 12.2716 8.92021 12.5586 8.92021C12.8456 8.92021 13.0786 9.15321 13.0786 9.44021V11.4802H15.1186C15.4056 11.4802 15.6376 11.7132 15.6376 12.0002ZM22.0876 12.0002C22.0876 17.2552 17.8136 21.5292 12.5586 21.5292C7.30356 21.5292 3.02856 17.2552 3.02856 12.0002C3.02856 6.74521 7.30356 2.47021 12.5586 2.47021C17.8136 2.47021 22.0876 6.74521 22.0876 12.0002ZM21.0486 12.0002C21.0486 7.31921 17.2396 3.51021 12.5586 3.51021C7.87756 3.51021 4.06856 7.31921 4.06856 12.0002C4.06856 16.6822 7.87756 20.4902 12.5586 20.4902C17.2396 20.4902 21.0486 16.6822 21.0486 12.0002Z" fill="#EFF6FF"/>
</svg>
