<svg width="25" height="24" viewBox="0 0 25 24" fill="none" xmlns="http://www.w3.org/2000/svg">
<path d="M15.735 12C15.735 12.287 15.503 12.52 15.215 12.52H10.096C9.80898 12.52 9.57598 12.287 9.57598 12C9.57598 11.713 9.80898 11.48 10.096 11.48H15.216C15.503 11.48 15.735 11.713 15.735 12ZM22.185 12C22.185 17.255 17.911 21.529 12.656 21.529C7.40098 21.529 3.12598 17.255 3.12598 12C3.12598 6.74497 7.40098 2.46997 12.656 2.46997C17.911 2.46997 22.185 6.74497 22.185 12ZM21.146 12C21.146 7.31897 17.337 3.50997 12.656 3.50997C7.97498 3.50997 4.16598 7.31897 4.16598 12C4.16598 16.682 7.97498 20.49 12.656 20.49C17.337 20.49 21.146 16.682 21.146 12Z" fill="#91B3E3"/>
</svg>
