<svg width="24" height="24" viewBox="0 0 24 24" fill="none" xmlns="http://www.w3.org/2000/svg">
<path d="M15.079 12C15.079 12.287 14.847 12.52 14.559 12.52H12.519V14.561C12.519 14.848 12.286 15.081 11.999 15.081C11.712 15.081 11.479 14.849 11.479 14.561V12.52H9.43997C9.15297 12.52 8.91997 12.287 8.91997 12C8.91997 11.713 9.15297 11.48 9.43997 11.48H11.48V9.43997C11.48 9.15297 11.713 8.91997 12 8.91997C12.287 8.91997 12.52 9.15297 12.52 9.43997V11.48H14.56C14.847 11.48 15.079 11.713 15.079 12ZM21.529 12C21.529 17.255 17.255 21.529 12 21.529C6.74497 21.529 2.46997 17.255 2.46997 12C2.46997 6.74497 6.74497 2.46997 12 2.46997C17.255 2.46997 21.529 6.74497 21.529 12ZM20.49 12C20.49 7.31897 16.681 3.50997 12 3.50997C7.31897 3.50997 3.50997 7.31897 3.50997 12C3.50997 16.682 7.31897 20.49 12 20.49C16.681 20.49 20.49 16.682 20.49 12Z" fill="#91B3E3"/>
</svg>
