<svg width="24" height="24" viewBox="0 0 24 24" fill="none" xmlns="http://www.w3.org/2000/svg">
<path d="M0.5 4C0.5 2.067 2.067 0.5 4 0.5H20C21.933 0.5 23.5 2.067 23.5 4V20C23.5 21.933 21.933 23.5 20 23.5H4C2.067 23.5 0.5 21.933 0.5 20V4Z" fill="#0097DB"/>
<path d="M0.5 4C0.5 2.067 2.067 0.5 4 0.5H20C21.933 0.5 23.5 2.067 23.5 4V20C23.5 21.933 21.933 23.5 20 23.5H4C2.067 23.5 0.5 21.933 0.5 20V4Z" stroke="#0097DB"/>
<path d="M17.6751 6.93268L10.2084 16.5333C10.1317 16.6307 10.0171 16.6913 9.89307 16.6993C9.8844 16.7 9.87507 16.7007 9.8664 16.7007C9.75173 16.7007 9.64173 16.6553 9.5604 16.574L6.3604 13.3733C6.19107 13.204 6.19107 12.9293 6.3604 12.76C6.52973 12.5907 6.80373 12.5907 6.97307 12.76L9.82573 15.6133L16.9911 6.40068C17.1384 6.21135 17.4104 6.17868 17.5991 6.32468C17.7884 6.47202 17.8217 6.74402 17.6751 6.93268Z" fill="white"/>
</svg>
