<svg width="46" height="46" viewBox="0 0 46 46" fill="none" xmlns="http://www.w3.org/2000/svg">
<path d="M31.2541 30.547C31.4491 30.742 31.4491 31.059 31.2541 31.254C31.1561 31.352 31.0281 31.4 30.9001 31.4C30.7721 31.4 30.6441 31.351 30.5461 31.254L23.0001 23.707L15.4531 31.254C15.3561 31.352 15.2281 31.4 15.1001 31.4C14.9721 31.4 14.8441 31.351 14.7461 31.254C14.5511 31.059 14.5511 30.742 14.7461 30.547L22.2931 23L14.7471 15.454C14.5521 15.259 14.5521 14.942 14.7471 14.747C14.9421 14.552 15.2591 14.552 15.4541 14.747L23.0001 22.293L30.5471 14.746C30.7421 14.551 31.0591 14.551 31.2541 14.746C31.4491 14.941 31.4491 15.258 31.2541 15.453L23.7071 23L31.2541 30.547Z" fill="#0097DB"/>
</svg>
